<mxfile host="Electron" agent="Mozilla/5.0 (Macintosh; Intel Mac OS X 10_15_7) AppleWebKit/537.36 (KHTML, like Gecko) draw.io/28.0.6 Chrome/138.0.7204.100 Electron/37.2.3 Safari/537.36" version="28.0.6">
  <diagram name="Page-1" id="9ae_nwG2ndyMPoEbgRYC">
    <mxGraphModel dx="946" dy="679" grid="1" gridSize="10" guides="1" tooltips="1" connect="1" arrows="1" fold="1" page="1" pageScale="1" pageWidth="850" pageHeight="1100" math="0" shadow="0">
      <root>
        <mxCell id="0" />
        <mxCell id="1" parent="0" />
        <mxCell id="TPqhGdljlStNI3GnXQKL-1" value="&lt;font&gt;volume_type&lt;/font&gt;" style="rounded=1;whiteSpace=wrap;html=1;sketch=1;hachureGap=4;jiggle=2;curveFitting=1;fontFamily=Times New Roman;fillColor=#ffe6cc;strokeColor=#d79b00;fontSize=16;" parent="1" vertex="1">
          <mxGeometry x="410" y="230" width="120" height="60" as="geometry" />
        </mxCell>
        <mxCell id="vxVk7jYxDeZn5vEASmRC-4" value="" style="edgeStyle=none;orthogonalLoop=1;jettySize=auto;html=1;rounded=0;sketch=1;hachureGap=4;jiggle=2;curveFitting=1;fontFamily=Times New Roman;exitX=1;exitY=0.5;exitDx=0;exitDy=0;entryX=0;entryY=0.5;entryDx=0;entryDy=0;fillColor=#ffe6cc;strokeColor=#d79b00;fontSize=16;" edge="1" parent="1" source="vxVk7jYxDeZn5vEASmRC-17" target="TPqhGdljlStNI3GnXQKL-1">
          <mxGeometry width="100" relative="1" as="geometry">
            <mxPoint x="220" y="260" as="sourcePoint" />
            <mxPoint x="370" y="260" as="targetPoint" />
            <Array as="points" />
          </mxGeometry>
        </mxCell>
        <mxCell id="vxVk7jYxDeZn5vEASmRC-5" value="&lt;div&gt;get_by_name_or_id&lt;div&gt;(context, req_volume_type)&lt;/div&gt;&lt;/div&gt;" style="text;html=1;align=center;verticalAlign=middle;resizable=0;points=[];autosize=1;fontFamily=Times New Roman;fillColor=none;strokeColor=none;fontSize=16;" vertex="1" parent="1">
          <mxGeometry x="215" y="210" width="200" height="50" as="geometry" />
        </mxCell>
        <mxCell id="vxVk7jYxDeZn5vEASmRC-6" value="&lt;font&gt;snapshot&lt;/font&gt;" style="rounded=1;whiteSpace=wrap;html=1;sketch=1;hachureGap=4;jiggle=2;curveFitting=1;fontFamily=Times New Roman;fillColor=#ffe6cc;strokeColor=#d79b00;fontSize=16;" vertex="1" parent="1">
          <mxGeometry x="410" y="340" width="120" height="60" as="geometry" />
        </mxCell>
        <mxCell id="vxVk7jYxDeZn5vEASmRC-8" value="get_snapshot&lt;div&gt;(context,snapshot_id)&lt;/div&gt;" style="text;html=1;align=center;verticalAlign=middle;resizable=0;points=[];autosize=1;fontFamily=Times New Roman;fillColor=none;strokeColor=none;fontSize=16;" vertex="1" parent="1">
          <mxGeometry x="235" y="325" width="160" height="50" as="geometry" />
        </mxCell>
        <mxCell id="vxVk7jYxDeZn5vEASmRC-10" value="&lt;font&gt;source_volume&lt;/font&gt;" style="rounded=1;whiteSpace=wrap;html=1;sketch=1;hachureGap=4;jiggle=2;curveFitting=1;fontFamily=Times New Roman;fillColor=#ffe6cc;strokeColor=#d79b00;fontSize=16;" vertex="1" parent="1">
          <mxGeometry x="410" y="420" width="120" height="60" as="geometry" />
        </mxCell>
        <mxCell id="vxVk7jYxDeZn5vEASmRC-12" value="get_volume&lt;div&gt;(context,source_volid)&lt;/div&gt;" style="text;html=1;align=center;verticalAlign=middle;resizable=0;points=[];autosize=1;fontFamily=Times New Roman;fillColor=none;strokeColor=none;fontSize=16;" vertex="1" parent="1">
          <mxGeometry x="230" y="400" width="170" height="50" as="geometry" />
        </mxCell>
        <mxCell id="vxVk7jYxDeZn5vEASmRC-15" value="get&lt;div&gt;(context, consistencygroup_id)&lt;/div&gt;" style="text;html=1;align=center;verticalAlign=middle;resizable=0;points=[];autosize=1;fontFamily=Times New Roman;fillColor=none;strokeColor=none;fontSize=16;" vertex="1" parent="1">
          <mxGeometry x="195" y="505" width="220" height="50" as="geometry" />
        </mxCell>
        <mxCell id="vxVk7jYxDeZn5vEASmRC-17" value="&lt;span style=&quot;text-wrap-mode: nowrap;&quot;&gt;objects.VolumeType&lt;/span&gt;" style="rounded=1;whiteSpace=wrap;html=1;sketch=1;hachureGap=4;jiggle=2;curveFitting=1;fontFamily=Times New Roman;fillColor=#ffe6cc;strokeColor=#d79b00;fontSize=16;" vertex="1" parent="1">
          <mxGeometry x="75" y="230" width="140" height="60" as="geometry" />
        </mxCell>
        <mxCell id="vxVk7jYxDeZn5vEASmRC-19" value="&lt;span style=&quot;text-wrap-mode: nowrap;&quot;&gt;self.volume_api&lt;/span&gt;" style="rounded=1;whiteSpace=wrap;html=1;sketch=1;hachureGap=4;jiggle=2;curveFitting=1;fontFamily=Times New Roman;fillColor=#ffe6cc;strokeColor=#d79b00;fontSize=16;" vertex="1" parent="1">
          <mxGeometry x="75" y="380" width="120" height="60" as="geometry" />
        </mxCell>
        <mxCell id="vxVk7jYxDeZn5vEASmRC-49" style="edgeStyle=orthogonalEdgeStyle;rounded=0;sketch=1;hachureGap=4;jiggle=2;curveFitting=1;orthogonalLoop=1;jettySize=auto;html=1;exitX=0.75;exitY=0.25;exitDx=0;exitDy=0;exitPerimeter=0;fontFamily=Times New Roman;fillColor=#ffe6cc;strokeColor=#d79b00;fontSize=16;" edge="1" parent="1" source="vxVk7jYxDeZn5vEASmRC-46" target="vxVk7jYxDeZn5vEASmRC-6">
          <mxGeometry relative="1" as="geometry" />
        </mxCell>
        <mxCell id="vxVk7jYxDeZn5vEASmRC-50" style="edgeStyle=orthogonalEdgeStyle;rounded=0;sketch=1;hachureGap=4;jiggle=2;curveFitting=1;orthogonalLoop=1;jettySize=auto;html=1;exitX=1;exitY=0.75;exitDx=0;exitDy=0;fontFamily=Times New Roman;fillColor=#ffe6cc;strokeColor=#d79b00;fontSize=16;" edge="1" parent="1" source="vxVk7jYxDeZn5vEASmRC-46" target="vxVk7jYxDeZn5vEASmRC-10">
          <mxGeometry relative="1" as="geometry" />
        </mxCell>
        <mxCell id="vxVk7jYxDeZn5vEASmRC-46" value="" style="shape=curlyBracket;whiteSpace=wrap;html=1;rounded=1;labelPosition=left;verticalLabelPosition=middle;align=right;verticalAlign=middle;sketch=1;hachureGap=4;jiggle=2;curveFitting=1;fontFamily=Times New Roman;fillColor=#ffe6cc;strokeColor=#d79b00;fontSize=16;" vertex="1" parent="1">
          <mxGeometry x="200" y="330" width="20" height="160" as="geometry" />
        </mxCell>
        <mxCell id="vxVk7jYxDeZn5vEASmRC-51" value="&lt;font&gt;group&lt;/font&gt;" style="rounded=1;whiteSpace=wrap;html=1;sketch=1;hachureGap=4;jiggle=2;curveFitting=1;fontFamily=Times New Roman;fillColor=#ffe6cc;strokeColor=#d79b00;fontSize=16;" vertex="1" parent="1">
          <mxGeometry x="410" y="530" width="120" height="60" as="geometry" />
        </mxCell>
        <mxCell id="vxVk7jYxDeZn5vEASmRC-52" value="" style="edgeStyle=none;orthogonalLoop=1;jettySize=auto;html=1;rounded=0;sketch=1;hachureGap=4;jiggle=2;curveFitting=1;fontFamily=Times New Roman;exitX=1;exitY=0.5;exitDx=0;exitDy=0;entryX=0;entryY=0.5;entryDx=0;entryDy=0;fillColor=#ffe6cc;strokeColor=#d79b00;fontSize=16;" edge="1" parent="1" target="vxVk7jYxDeZn5vEASmRC-51">
          <mxGeometry width="100" relative="1" as="geometry">
            <mxPoint x="210" y="560" as="sourcePoint" />
            <mxPoint x="360" y="560" as="targetPoint" />
            <Array as="points" />
          </mxGeometry>
        </mxCell>
        <mxCell id="vxVk7jYxDeZn5vEASmRC-54" value="&lt;span style=&quot;text-wrap-mode: nowrap;&quot;&gt;self.group_api&lt;/span&gt;" style="rounded=1;whiteSpace=wrap;html=1;sketch=1;hachureGap=4;jiggle=2;curveFitting=1;fontFamily=Times New Roman;fillColor=#ffe6cc;strokeColor=#d79b00;fontSize=16;" vertex="1" parent="1">
          <mxGeometry x="75" y="530" width="120" height="60" as="geometry" />
        </mxCell>
        <mxCell id="vxVk7jYxDeZn5vEASmRC-58" value="&lt;div&gt;get&lt;/div&gt;&lt;div&gt;(context, group_id)&lt;/div&gt;" style="text;html=1;align=center;verticalAlign=middle;resizable=0;points=[];autosize=1;fontFamily=Times New Roman;fillColor=none;strokeColor=none;fontSize=16;" vertex="1" parent="1">
          <mxGeometry x="220" y="555" width="150" height="50" as="geometry" />
        </mxCell>
        <mxCell id="vxVk7jYxDeZn5vEASmRC-59" value="&lt;span style=&quot;text-wrap-mode: nowrap;&quot;&gt;self.backup_api&lt;/span&gt;" style="rounded=1;whiteSpace=wrap;html=1;sketch=1;hachureGap=4;jiggle=2;curveFitting=1;fontFamily=Times New Roman;fillColor=#ffe6cc;strokeColor=#d79b00;fontSize=16;" vertex="1" parent="1">
          <mxGeometry x="75" y="640" width="120" height="60" as="geometry" />
        </mxCell>
        <mxCell id="vxVk7jYxDeZn5vEASmRC-60" value="&lt;font&gt;backup&lt;/font&gt;" style="rounded=1;whiteSpace=wrap;html=1;sketch=1;hachureGap=4;jiggle=2;curveFitting=1;fontFamily=Times New Roman;fillColor=#ffe6cc;strokeColor=#d79b00;fontSize=16;" vertex="1" parent="1">
          <mxGeometry x="415" y="640" width="120" height="60" as="geometry" />
        </mxCell>
        <mxCell id="vxVk7jYxDeZn5vEASmRC-61" value="" style="edgeStyle=none;orthogonalLoop=1;jettySize=auto;html=1;rounded=0;sketch=1;hachureGap=4;jiggle=2;curveFitting=1;fontFamily=Times New Roman;exitX=1;exitY=0.5;exitDx=0;exitDy=0;entryX=0;entryY=0.5;entryDx=0;entryDy=0;fillColor=#ffe6cc;strokeColor=#d79b00;fontSize=16;" edge="1" parent="1" target="vxVk7jYxDeZn5vEASmRC-60" source="vxVk7jYxDeZn5vEASmRC-59">
          <mxGeometry width="100" relative="1" as="geometry">
            <mxPoint x="210" y="670" as="sourcePoint" />
            <mxPoint x="375" y="670" as="targetPoint" />
            <Array as="points" />
          </mxGeometry>
        </mxCell>
        <mxCell id="vxVk7jYxDeZn5vEASmRC-62" value="&lt;div&gt;&lt;div&gt;get&lt;/div&gt;&lt;div&gt;(context, backup_id)&lt;/div&gt;&lt;/div&gt;" style="text;html=1;align=center;verticalAlign=middle;resizable=0;points=[];autosize=1;fontFamily=Times New Roman;fillColor=none;strokeColor=none;fontSize=16;" vertex="1" parent="1">
          <mxGeometry x="220" y="625" width="160" height="50" as="geometry" />
        </mxCell>
        <mxCell id="vxVk7jYxDeZn5vEASmRC-71" value="" style="edgeStyle=orthogonalEdgeStyle;rounded=0;sketch=1;hachureGap=4;jiggle=2;curveFitting=1;orthogonalLoop=1;jettySize=auto;html=1;fontFamily=Architects Daughter;fontSource=https%3A%2F%2Ffonts.googleapis.com%2Fcss%3Ffamily%3DArchitects%2BDaughter;" edge="1" parent="1" source="vxVk7jYxDeZn5vEASmRC-63" target="vxVk7jYxDeZn5vEASmRC-70">
          <mxGeometry relative="1" as="geometry" />
        </mxCell>
        <mxCell id="vxVk7jYxDeZn5vEASmRC-63" value="&lt;span style=&quot;text-wrap-mode: nowrap;&quot;&gt;imageRef&lt;/span&gt;" style="rounded=1;whiteSpace=wrap;html=1;sketch=1;hachureGap=4;jiggle=2;curveFitting=1;fontFamily=Times New Roman;fillColor=#ffe6cc;strokeColor=#d79b00;fontSize=16;" vertex="1" parent="1">
          <mxGeometry x="20" y="830" width="150" height="70" as="geometry" />
        </mxCell>
        <mxCell id="vxVk7jYxDeZn5vEASmRC-69" value="" style="edgeStyle=orthogonalEdgeStyle;rounded=0;sketch=1;hachureGap=4;jiggle=2;curveFitting=1;orthogonalLoop=1;jettySize=auto;html=1;fontFamily=Architects Daughter;fontSource=https%3A%2F%2Ffonts.googleapis.com%2Fcss%3Ffamily%3DArchitects%2BDaughter;" edge="1" parent="1" source="vxVk7jYxDeZn5vEASmRC-64" target="vxVk7jYxDeZn5vEASmRC-68">
          <mxGeometry relative="1" as="geometry" />
        </mxCell>
        <mxCell id="vxVk7jYxDeZn5vEASmRC-64" value="&lt;div&gt;&lt;font style=&quot;font-size: 14px;&quot;&gt;api版本是否支持&lt;span style=&quot;background-color: transparent; color: light-dark(rgb(0, 0, 0), rgb(255, 255, 255));&quot;&gt;SUPPORT_NOVA_IMAGE&lt;/span&gt;&lt;/font&gt;&lt;/div&gt;&lt;div&gt;&lt;font style=&quot;font-size: 14px;&quot;&gt;and&lt;/font&gt;&lt;/div&gt;&lt;font style=&quot;font-size: 14px;&quot;&gt;镜像中是否有snapshot&lt;/font&gt;" style="html=1;whiteSpace=wrap;aspect=fixed;shape=isoRectangle;sketch=1;hachureGap=4;jiggle=2;curveFitting=1;fontFamily=Architects Daughter;fontSource=https%3A%2F%2Ffonts.googleapis.com%2Fcss%3Ffamily%3DArchitects%2BDaughter;fillColor=#f8cecc;strokeColor=#b85450;" vertex="1" parent="1">
          <mxGeometry x="360" y="787.75" width="257.5" height="154.5" as="geometry" />
        </mxCell>
        <mxCell id="vxVk7jYxDeZn5vEASmRC-68" value="snapshot" style="rounded=1;whiteSpace=wrap;html=1;fontFamily=Architects Daughter;sketch=1;hachureGap=4;jiggle=2;curveFitting=1;fontSource=https%3A%2F%2Ffonts.googleapis.com%2Fcss%3Ffamily%3DArchitects%2BDaughter;fillColor=#fff2cc;strokeColor=#d6b656;" vertex="1" parent="1">
          <mxGeometry x="700" y="835" width="120" height="60" as="geometry" />
        </mxCell>
        <mxCell id="vxVk7jYxDeZn5vEASmRC-72" value="" style="edgeStyle=orthogonalEdgeStyle;rounded=0;sketch=1;hachureGap=4;jiggle=2;curveFitting=1;orthogonalLoop=1;jettySize=auto;html=1;fontFamily=Architects Daughter;fontSource=https%3A%2F%2Ffonts.googleapis.com%2Fcss%3Ffamily%3DArchitects%2BDaughter;" edge="1" parent="1" source="vxVk7jYxDeZn5vEASmRC-70" target="vxVk7jYxDeZn5vEASmRC-64">
          <mxGeometry relative="1" as="geometry" />
        </mxCell>
        <mxCell id="vxVk7jYxDeZn5vEASmRC-70" value="image_uuid&lt;div&gt;&lt;br&gt;&lt;div&gt;image_snapshot&lt;/div&gt;&lt;/div&gt;" style="shape=document;whiteSpace=wrap;html=1;boundedLbl=1;fontSize=16;fontFamily=Times New Roman;fillColor=#d5e8d4;strokeColor=#82b366;rounded=1;sketch=1;hachureGap=4;jiggle=2;curveFitting=1;" vertex="1" parent="1">
          <mxGeometry x="215" y="817.5" width="120" height="95" as="geometry" />
        </mxCell>
        <mxCell id="vxVk7jYxDeZn5vEASmRC-73" value="True" style="text;html=1;align=center;verticalAlign=middle;resizable=0;points=[];autosize=1;strokeColor=none;fillColor=none;fontFamily=Architects Daughter;fontSource=https%3A%2F%2Ffonts.googleapis.com%2Fcss%3Ffamily%3DArchitects%2BDaughter;" vertex="1" parent="1">
          <mxGeometry x="630" y="835" width="50" height="30" as="geometry" />
        </mxCell>
        <mxCell id="vxVk7jYxDeZn5vEASmRC-74" value="" style="edgeStyle=segmentEdgeStyle;endArrow=classic;html=1;curved=0;rounded=0;endSize=8;startSize=8;sketch=1;hachureGap=4;jiggle=2;curveFitting=1;fontFamily=Architects Daughter;fontSource=https%3A%2F%2Ffonts.googleapis.com%2Fcss%3Ffamily%3DArchitects%2BDaughter;exitX=0.501;exitY=0.982;exitDx=0;exitDy=0;exitPerimeter=0;entryX=0;entryY=0.5;entryDx=0;entryDy=0;" edge="1" parent="1" source="vxVk7jYxDeZn5vEASmRC-64" target="vxVk7jYxDeZn5vEASmRC-78">
          <mxGeometry width="50" height="50" relative="1" as="geometry">
            <mxPoint x="550" y="950" as="sourcePoint" />
            <mxPoint x="610" y="990" as="targetPoint" />
            <Array as="points">
              <mxPoint x="489" y="990" />
            </Array>
          </mxGeometry>
        </mxCell>
        <mxCell id="vxVk7jYxDeZn5vEASmRC-77" value="False" style="text;html=1;align=center;verticalAlign=middle;resizable=0;points=[];autosize=1;strokeColor=none;fillColor=none;fontFamily=Architects Daughter;fontSource=https%3A%2F%2Ffonts.googleapis.com%2Fcss%3Ffamily%3DArchitects%2BDaughter;" vertex="1" parent="1">
          <mxGeometry x="580" y="968" width="50" height="30" as="geometry" />
        </mxCell>
        <mxCell id="vxVk7jYxDeZn5vEASmRC-78" value="image_id" style="rounded=1;whiteSpace=wrap;html=1;fontFamily=Architects Daughter;sketch=1;hachureGap=4;jiggle=2;curveFitting=1;fontSource=https%3A%2F%2Ffonts.googleapis.com%2Fcss%3Ffamily%3DArchitects%2BDaughter;fillColor=#fff2cc;strokeColor=#d6b656;" vertex="1" parent="1">
          <mxGeometry x="700" y="960" width="120" height="60" as="geometry" />
        </mxCell>
      </root>
    </mxGraphModel>
  </diagram>
</mxfile>
